<svg width="231" height="231" viewBox="0 0 231 231" fill="none" xmlns="http://www.w3.org/2000/svg">
<path d="M115.5 0C51.8144 0 0 51.8144 0 115.5C0 179.186 51.8144 231 115.5 231C179.186 231 231 179.186 231 115.5C231 51.8144 179.186 0 115.5 0Z" fill="#303C42"/>
<path d="M115.5 9.62485C170.321 9.62485 215.532 51.5103 220.841 104.957C213.008 106.692 193.109 110.316 163.134 110.645C160.66 86.4157 140.372 67.3744 115.5 67.3744C90.6282 67.3744 70.34 86.4152 67.8657 110.645C37.8908 110.316 17.9923 106.692 10.159 104.957C15.4684 51.5107 60.679 9.62485 115.5 9.62485Z" fill="#E53935"/>
<path d="M115.5 154C136.763 154 154 136.763 154 115.5C154 94.2371 136.763 77.0002 115.5 77.0002C94.2371 77.0002 77.0002 94.2371 77.0002 115.5C77.0002 136.763 94.2371 154 115.5 154Z" fill="#455A64"/>
<path d="M115.5 221.375C57.1202 221.375 9.62485 173.88 9.62485 115.5C9.62485 115.231 9.66365 114.972 9.66545 114.703C18.8288 116.654 38.6415 119.913 67.8531 120.231C70.27 144.52 90.5854 163.625 115.5 163.625C140.415 163.625 160.73 144.52 163.147 120.231C192.359 119.913 212.171 116.654 221.335 114.703C221.336 114.972 221.375 115.231 221.375 115.5C221.375 173.88 173.88 221.375 115.5 221.375Z" fill="white"/>
<path d="M115.5 144.375C131.447 144.375 144.375 131.447 144.375 115.5C144.375 99.5528 131.447 86.625 115.5 86.625C99.5528 86.625 86.625 99.5528 86.625 115.5C86.625 131.447 99.5528 144.375 115.5 144.375Z" fill="#303C42"/>
<path d="M115.5 134.75C126.132 134.75 134.75 126.132 134.75 115.5C134.75 104.868 126.132 96.2498 115.5 96.2498C104.868 96.2498 96.2498 104.868 96.2498 115.5C96.2498 126.132 104.868 134.75 115.5 134.75Z" fill="#F2F2F2"/>
<path opacity="0.2" d="M100.06 121.315C100.06 110.698 108.693 102.065 119.31 102.065C124.821 102.065 129.763 104.421 133.275 108.144C130.38 101.171 123.511 96.2498 115.5 96.2498C104.883 96.2498 96.2498 104.883 96.2498 115.5C96.2498 120.605 98.2806 125.222 101.534 128.67C100.592 126.402 100.06 123.921 100.06 121.315Z" fill="white"/>
</svg>
